<svg viewBox="0 0 1024 1024" xmlns="http://www.w3.org/2000/svg"><style>*{fill:#26747A!important;}</style><g fill="none"><path d="M502.618 557.128v158.615h127.84V533.219h-127.84"/><path d="M241.371 317.808c-10.913 0-19.763 8.803-19.763 19.665v102.632c0 10.859 8.849 19.666 19.763 19.666h285.953c10.913 0 19.758-8.807 19.758-19.666V337.473c0-10.859-8.848-19.666-19.761-19.666H241.368l.002.002h.001zm646.593 47.908c-.352-21.427-17.883-38.69-39.492-38.69h-15.286c-.274-5.139-3.861-9.222-8.276-9.222h-16.682c-4.42 0-8.007 4.083-8.281 9.222h-188.63c-21.83 0-39.525 17.609-39.525 39.331v93.418h29.031v-83.264h257.532v314.651H681.318v78.666h167.156c21.83 0 39.525-17.609 39.525-39.333v-364.78h-.035v.001zM221.61 495.113h227.275v38.101H221.61v-38.101zm0 78.046h227.275v38.107H221.61v-38.107zm0 79.59h227.275v38.103H221.61v-38.103zm-45.085 77.438V268.334h553.366v39.329c1.838 0 3.631-.165 5.411-.409h34.116v-38.919c0-21.72-17.7-39.335-39.525-39.335H176.525C154.693 229 137 246.612 137 268.335v461.853c0 21.72 17.696 39.329 39.525 39.329h272.361v-39.329H176.524zm444.979-250.395v-.043H512.499c-21.832 0-39.525 17.609-39.525 39.331v235.997c0 21.72 17.7 39.333 39.525 39.333H620.58c21.826 0 39.525-17.612 39.525-39.333V519.079c0-21.407-17.206-38.789-38.603-39.286l.001-.001zm-72.15 53.421h81.104v182.53h-127.84v-182.53h46.736z" fill="#000"/></g></svg>